<mxfile host="app.diagrams.net" agent="Mozilla/5.0 (Windows NT 10.0; Win64; x64) AppleWebKit/537.36 (KHTML, like Gecko) Chrome/131.0.0.0 Safari/537.36" version="25.0.3">
  <diagram name="Page-1" id="e7e014a7-5840-1c2e-5031-d8a46d1fe8dd">
    <mxGraphModel dx="1050" dy="603" grid="1" gridSize="10" guides="1" tooltips="1" connect="1" arrows="1" fold="1" page="1" pageScale="1" pageWidth="1169" pageHeight="826" background="none" math="0" shadow="0">
      <root>
        <mxCell id="0" />
        <mxCell id="1" parent="0" />
        <mxCell id="2" value="Người dùng" style="swimlane;whiteSpace=wrap" parent="1" vertex="1">
          <mxGeometry x="164.5" y="128" width="280" height="1000" as="geometry" />
        </mxCell>
        <mxCell id="5" value="" style="ellipse;shape=startState;fillColor=#000000;strokeColor=#FFFFFF;" parent="2" vertex="1">
          <mxGeometry x="100" y="40" width="30" height="30" as="geometry" />
        </mxCell>
        <mxCell id="6" value="" style="edgeStyle=elbowEdgeStyle;elbow=horizontal;verticalAlign=bottom;endArrow=open;endSize=8;strokeColor=#000000;endFill=1;rounded=0" parent="2" source="5" target="7" edge="1">
          <mxGeometry x="100" y="40" as="geometry">
            <mxPoint x="115" y="110" as="targetPoint" />
          </mxGeometry>
        </mxCell>
        <mxCell id="7" value="Mở ứng dụng" style="" parent="2" vertex="1">
          <mxGeometry x="60" y="110" width="110" height="50" as="geometry" />
        </mxCell>
        <mxCell id="8" value="Bật GPS" style="" parent="2" vertex="1">
          <mxGeometry x="60" y="220" width="110" height="50" as="geometry" />
        </mxCell>
        <mxCell id="9" value="" style="endArrow=open;strokeColor=#000000;endFill=1;rounded=0" parent="2" source="7" target="8" edge="1">
          <mxGeometry relative="1" as="geometry" />
        </mxCell>
        <mxCell id="10" value="Chụp ảnh/video" style="" parent="2" vertex="1">
          <mxGeometry x="60" y="330" width="110" height="50" as="geometry" />
        </mxCell>
        <mxCell id="TZMufsa67h73KZ5UmzKA-59" value="Xem hành trình trên bản đồ" style="whiteSpace=wrap;" vertex="1" parent="2">
          <mxGeometry x="60" y="550" width="110" height="50" as="geometry" />
        </mxCell>
        <mxCell id="TZMufsa67h73KZ5UmzKA-82" style="edgeStyle=orthogonalEdgeStyle;rounded=0;orthogonalLoop=1;jettySize=auto;html=1;exitX=1;exitY=0.5;exitDx=0;exitDy=0;entryX=0;entryY=0.5;entryDx=0;entryDy=0;" edge="1" parent="2" source="TZMufsa67h73KZ5UmzKA-68" target="TZMufsa67h73KZ5UmzKA-73">
          <mxGeometry relative="1" as="geometry" />
        </mxCell>
        <mxCell id="TZMufsa67h73KZ5UmzKA-68" value="Chia sẻ nhật kí du lịch" style="whiteSpace=wrap;" vertex="1" parent="2">
          <mxGeometry x="60" y="705" width="110" height="50" as="geometry" />
        </mxCell>
        <mxCell id="TZMufsa67h73KZ5UmzKA-69" value="Thêm ghi chú/cảm xúc" style="whiteSpace=wrap;" vertex="1" parent="2">
          <mxGeometry x="60" y="440" width="110" height="50" as="geometry" />
        </mxCell>
        <mxCell id="TZMufsa67h73KZ5UmzKA-73" value="" style="rounded=0;whiteSpace=wrap;html=1;fillColor=#000000;" vertex="1" parent="2">
          <mxGeometry x="255.5" y="710" width="10" height="40" as="geometry" />
        </mxCell>
        <mxCell id="38" value="" style="ellipse;shape=endState;fillColor=#000000;strokeColor=#000000;" parent="2" vertex="1">
          <mxGeometry x="95" y="892" width="40" height="40" as="geometry" />
        </mxCell>
        <mxCell id="TZMufsa67h73KZ5UmzKA-111" style="edgeStyle=orthogonalEdgeStyle;rounded=0;orthogonalLoop=1;jettySize=auto;html=1;exitX=1;exitY=0.5;exitDx=0;exitDy=0;" edge="1" parent="2" source="TZMufsa67h73KZ5UmzKA-86">
          <mxGeometry relative="1" as="geometry">
            <mxPoint x="135.5" y="912" as="targetPoint" />
          </mxGeometry>
        </mxCell>
        <mxCell id="TZMufsa67h73KZ5UmzKA-86" value="" style="rounded=0;whiteSpace=wrap;html=1;fillColor=#000000;direction=west;" vertex="1" parent="2">
          <mxGeometry x="235.5" y="882" width="10" height="60" as="geometry" />
        </mxCell>
        <mxCell id="3" value="Ứng dụng" style="swimlane;whiteSpace=wrap;startSize=23;" parent="1" vertex="1">
          <mxGeometry x="445" y="128" width="280" height="1000" as="geometry" />
        </mxCell>
        <mxCell id="16" value="Lấy tọa độ GPS" style="" parent="3" vertex="1">
          <mxGeometry x="60" y="220" width="110" height="50" as="geometry" />
        </mxCell>
        <mxCell id="18" value="Lưu ảnh/video với tọa độ" style="whiteSpace=wrap;" parent="3" vertex="1">
          <mxGeometry x="60" y="330" width="110" height="50" as="geometry" />
        </mxCell>
        <mxCell id="TZMufsa67h73KZ5UmzKA-61" value="Hiển thị hành trình trên bản đồ" style="whiteSpace=wrap;" vertex="1" parent="3">
          <mxGeometry x="60" y="550" width="110" height="50" as="geometry" />
        </mxCell>
        <mxCell id="TZMufsa67h73KZ5UmzKA-99" style="edgeStyle=orthogonalEdgeStyle;rounded=0;orthogonalLoop=1;jettySize=auto;html=1;exitX=1;exitY=0.5;exitDx=0;exitDy=0;entryX=0;entryY=0.5;entryDx=0;entryDy=0;" edge="1" parent="3" source="TZMufsa67h73KZ5UmzKA-71" target="TZMufsa67h73KZ5UmzKA-94">
          <mxGeometry relative="1" as="geometry" />
        </mxCell>
        <mxCell id="TZMufsa67h73KZ5UmzKA-71" value="Xuất sang PDF/Album" style="whiteSpace=wrap;" vertex="1" parent="3">
          <mxGeometry x="60" y="660" width="110" height="50" as="geometry" />
        </mxCell>
        <mxCell id="TZMufsa67h73KZ5UmzKA-105" style="edgeStyle=orthogonalEdgeStyle;rounded=0;orthogonalLoop=1;jettySize=auto;html=1;exitX=1;exitY=0.5;exitDx=0;exitDy=0;entryX=0;entryY=0.5;entryDx=0;entryDy=0;" edge="1" parent="3" source="TZMufsa67h73KZ5UmzKA-74" target="TZMufsa67h73KZ5UmzKA-103">
          <mxGeometry relative="1" as="geometry" />
        </mxCell>
        <mxCell id="TZMufsa67h73KZ5UmzKA-74" value="Đăng lên mạng xã hội" style="whiteSpace=wrap;" vertex="1" parent="3">
          <mxGeometry x="60" y="792" width="110" height="50" as="geometry" />
        </mxCell>
        <mxCell id="TZMufsa67h73KZ5UmzKA-94" value="" style="rounded=0;whiteSpace=wrap;html=1;fillColor=#000000;" vertex="1" parent="3">
          <mxGeometry x="235" y="660" width="10" height="49" as="geometry" />
        </mxCell>
        <mxCell id="TZMufsa67h73KZ5UmzKA-103" value="" style="rounded=0;whiteSpace=wrap;html=1;fillColor=#000000;" vertex="1" parent="3">
          <mxGeometry x="215" y="792.5" width="10" height="50" as="geometry" />
        </mxCell>
        <mxCell id="4" value="Hệ thống" style="swimlane;whiteSpace=wrap" parent="1" vertex="1">
          <mxGeometry x="724.5" y="128" width="280" height="1000" as="geometry" />
        </mxCell>
        <mxCell id="TZMufsa67h73KZ5UmzKA-47" value="Lưu dữ liệu vào cơ sở dữ lệu" style="whiteSpace=wrap;" vertex="1" parent="4">
          <mxGeometry x="90" y="234" width="110" height="50" as="geometry" />
        </mxCell>
        <mxCell id="TZMufsa67h73KZ5UmzKA-53" style="edgeStyle=orthogonalEdgeStyle;rounded=0;orthogonalLoop=1;jettySize=auto;html=1;exitX=1;exitY=0.5;exitDx=0;exitDy=0;entryX=0;entryY=0.5;entryDx=0;entryDy=0;" edge="1" parent="4" source="TZMufsa67h73KZ5UmzKA-50" target="TZMufsa67h73KZ5UmzKA-47">
          <mxGeometry relative="1" as="geometry" />
        </mxCell>
        <mxCell id="TZMufsa67h73KZ5UmzKA-50" value="" style="rounded=0;whiteSpace=wrap;html=1;fillColor=#000000;" vertex="1" parent="4">
          <mxGeometry x="35.5" y="232" width="10" height="54" as="geometry" />
        </mxCell>
        <mxCell id="TZMufsa67h73KZ5UmzKA-63" value="Truy xuất dữ liệu bản đồ" style="whiteSpace=wrap;" vertex="1" parent="4">
          <mxGeometry x="90" y="550" width="110" height="50" as="geometry" />
        </mxCell>
        <mxCell id="TZMufsa67h73KZ5UmzKA-72" value="Tạo file PDF/Album" style="whiteSpace=wrap;" vertex="1" parent="4">
          <mxGeometry x="90" y="660" width="110" height="50" as="geometry" />
        </mxCell>
        <mxCell id="TZMufsa67h73KZ5UmzKA-75" value="Xác thực quyền chia sẻ" style="whiteSpace=wrap;" vertex="1" parent="4">
          <mxGeometry x="90" y="802" width="110" height="50" as="geometry" />
        </mxCell>
        <mxCell id="20" value="" style="endArrow=open;strokeColor=#000000;endFill=1;rounded=0" parent="1" source="10" target="18" edge="1">
          <mxGeometry relative="1" as="geometry" />
        </mxCell>
        <mxCell id="TZMufsa67h73KZ5UmzKA-41" value="" style="endArrow=classic;html=1;rounded=0;exitX=1;exitY=0.5;exitDx=0;exitDy=0;entryX=0;entryY=0.5;entryDx=0;entryDy=0;" edge="1" parent="1" source="8" target="16">
          <mxGeometry width="50" height="50" relative="1" as="geometry">
            <mxPoint x="510" y="540" as="sourcePoint" />
            <mxPoint x="560" y="490" as="targetPoint" />
          </mxGeometry>
        </mxCell>
        <mxCell id="TZMufsa67h73KZ5UmzKA-56" style="edgeStyle=orthogonalEdgeStyle;rounded=0;orthogonalLoop=1;jettySize=auto;html=1;exitX=1;exitY=0.5;exitDx=0;exitDy=0;entryX=0;entryY=0.25;entryDx=0;entryDy=0;" edge="1" parent="1" source="16" target="TZMufsa67h73KZ5UmzKA-50">
          <mxGeometry relative="1" as="geometry" />
        </mxCell>
        <mxCell id="TZMufsa67h73KZ5UmzKA-57" style="edgeStyle=orthogonalEdgeStyle;rounded=0;orthogonalLoop=1;jettySize=auto;html=1;exitX=1;exitY=0.5;exitDx=0;exitDy=0;entryX=0;entryY=0.5;entryDx=0;entryDy=0;" edge="1" parent="1" source="18" target="TZMufsa67h73KZ5UmzKA-50">
          <mxGeometry relative="1" as="geometry">
            <Array as="points">
              <mxPoint x="650" y="483" />
              <mxPoint x="650" y="387" />
            </Array>
          </mxGeometry>
        </mxCell>
        <mxCell id="TZMufsa67h73KZ5UmzKA-62" style="edgeStyle=orthogonalEdgeStyle;rounded=0;orthogonalLoop=1;jettySize=auto;html=1;exitX=1;exitY=0.5;exitDx=0;exitDy=0;" edge="1" parent="1" source="TZMufsa67h73KZ5UmzKA-59" target="TZMufsa67h73KZ5UmzKA-61">
          <mxGeometry relative="1" as="geometry" />
        </mxCell>
        <mxCell id="TZMufsa67h73KZ5UmzKA-64" style="edgeStyle=orthogonalEdgeStyle;rounded=0;orthogonalLoop=1;jettySize=auto;html=1;exitX=1;exitY=0.5;exitDx=0;exitDy=0;entryX=0;entryY=0.5;entryDx=0;entryDy=0;" edge="1" parent="1" source="TZMufsa67h73KZ5UmzKA-61" target="TZMufsa67h73KZ5UmzKA-63">
          <mxGeometry relative="1" as="geometry" />
        </mxCell>
        <mxCell id="TZMufsa67h73KZ5UmzKA-70" style="edgeStyle=orthogonalEdgeStyle;rounded=0;orthogonalLoop=1;jettySize=auto;html=1;exitX=1;exitY=0.5;exitDx=0;exitDy=0;entryX=0;entryY=0.75;entryDx=0;entryDy=0;" edge="1" parent="1" source="TZMufsa67h73KZ5UmzKA-69" target="TZMufsa67h73KZ5UmzKA-50">
          <mxGeometry relative="1" as="geometry">
            <Array as="points">
              <mxPoint x="680" y="593" />
              <mxPoint x="680" y="401" />
            </Array>
          </mxGeometry>
        </mxCell>
        <mxCell id="TZMufsa67h73KZ5UmzKA-78" style="edgeStyle=orthogonalEdgeStyle;rounded=0;orthogonalLoop=1;jettySize=auto;html=1;exitX=1;exitY=0.25;exitDx=0;exitDy=0;entryX=0;entryY=0.5;entryDx=0;entryDy=0;" edge="1" parent="1" source="TZMufsa67h73KZ5UmzKA-73" target="TZMufsa67h73KZ5UmzKA-71">
          <mxGeometry relative="1" as="geometry" />
        </mxCell>
        <mxCell id="TZMufsa67h73KZ5UmzKA-81" style="edgeStyle=orthogonalEdgeStyle;rounded=0;orthogonalLoop=1;jettySize=auto;html=1;exitX=1;exitY=0.75;exitDx=0;exitDy=0;entryX=0;entryY=0.5;entryDx=0;entryDy=0;" edge="1" parent="1" source="TZMufsa67h73KZ5UmzKA-73" target="TZMufsa67h73KZ5UmzKA-74">
          <mxGeometry relative="1" as="geometry" />
        </mxCell>
        <mxCell id="TZMufsa67h73KZ5UmzKA-100" style="edgeStyle=orthogonalEdgeStyle;rounded=0;orthogonalLoop=1;jettySize=auto;html=1;exitX=1;exitY=0.25;exitDx=0;exitDy=0;entryX=0;entryY=0.25;entryDx=0;entryDy=0;" edge="1" parent="1" source="TZMufsa67h73KZ5UmzKA-94" target="TZMufsa67h73KZ5UmzKA-72">
          <mxGeometry relative="1" as="geometry" />
        </mxCell>
        <mxCell id="TZMufsa67h73KZ5UmzKA-101" style="edgeStyle=orthogonalEdgeStyle;rounded=0;orthogonalLoop=1;jettySize=auto;html=1;exitX=1;exitY=0.75;exitDx=0;exitDy=0;entryX=0;entryY=0.75;entryDx=0;entryDy=0;" edge="1" parent="1" source="TZMufsa67h73KZ5UmzKA-94" target="TZMufsa67h73KZ5UmzKA-86">
          <mxGeometry relative="1" as="geometry" />
        </mxCell>
        <mxCell id="TZMufsa67h73KZ5UmzKA-107" style="edgeStyle=orthogonalEdgeStyle;rounded=0;orthogonalLoop=1;jettySize=auto;html=1;exitX=1;exitY=0.75;exitDx=0;exitDy=0;entryX=0;entryY=0.25;entryDx=0;entryDy=0;" edge="1" parent="1" source="TZMufsa67h73KZ5UmzKA-103" target="TZMufsa67h73KZ5UmzKA-86">
          <mxGeometry relative="1" as="geometry" />
        </mxCell>
        <mxCell id="TZMufsa67h73KZ5UmzKA-110" style="edgeStyle=orthogonalEdgeStyle;rounded=0;orthogonalLoop=1;jettySize=auto;html=1;exitX=1;exitY=0.5;exitDx=0;exitDy=0;entryX=0;entryY=0.25;entryDx=0;entryDy=0;" edge="1" parent="1" source="TZMufsa67h73KZ5UmzKA-103" target="TZMufsa67h73KZ5UmzKA-75">
          <mxGeometry relative="1" as="geometry" />
        </mxCell>
      </root>
    </mxGraphModel>
  </diagram>
</mxfile>
